<svg xmlns="http://www.w3.org/2000/svg" width="512" height="512" viewBox="0 0 512 512" role="img" aria-label="Developer Toolbox">
  <rect width="512" height="512" rx="104" fill="#111217"/>
  <path fill="#d8f3ff" d="M138 154h236c26.5 0 48 21.5 48 48v128c0 26.5-21.5 48-48 48H138c-26.5 0-48-21.5-48-48V202c0-26.5 21.5-48 48-48Z"/>
  <path fill="#111217" d="M150 221l51 45-51 45-22-23 25-22-25-22 22-23Zm214 91H249v-35h115v35Z"/>
  <path fill="#2f8cff" d="M314 154h60c26.5 0 48 21.5 48 48v128c0 26.5-21.5 48-48 48h-60V154Z" opacity=".22"/>
</svg>
