<svg xmlns="http://www.w3.org/2000/svg" width="192" height="192" viewBox="0 0 192 192" role="img" aria-label="Developer Toolbox">
  <rect width="192" height="192" rx="40" fill="#111217"/>
  <path fill="#d8f3ff" d="M52 58h88c9.9 0 18 8.1 18 18v48c0 9.9-8.1 18-18 18H52c-9.9 0-18-8.1-18-18V76c0-9.9 8.1-18 18-18Z"/>
  <path fill="#111217" d="M56 83l19 17-19 17-8-9 9-8-9-8 8-9Zm80 34h-43v-13h43v13Z"/>
  <path fill="#2f8cff" d="M118 58h22c9.9 0 18 8.1 18 18v48c0 9.9-8.1 18-18 18h-22V58Z" opacity=".22"/>
</svg>
